<svg xmlns="http://www.w3.org/2000/svg" fill="none" viewBox="0 0 106 35"><path fill="#fff" d="M45.4 18.4c0 5-4 8.8-8.8 8.8a8.6 8.6 0 01-8.7-8.8c0-5 4-8.7 8.7-8.7 4.8 0 8.8 3.6 8.8 8.7zm-3.9 0c0-3.1-2.2-5.3-4.9-5.3-2.6 0-4.9 2.2-4.9 5.3 0 3.1 2.3 5.3 5 5.3 2.6 0 4.8-2.2 4.8-5.3zM64.2 18.4c0 5-4 8.8-8.7 8.8a8.6 8.6 0 01-8.7-8.8c0-5 3.9-8.7 8.7-8.7 4.8 0 8.7 3.6 8.7 8.7zm-3.8 0c0-3.1-2.3-5.3-5-5.3-2.6 0-4.9 2.2-4.9 5.3 0 3.1 2.3 5.3 5 5.3 2.6 0 4.9-2.2 4.9-5.3zM82.3 10.2V26c0 6.5-3.8 9.1-8.3 9.1a8.3 8.3 0 01-7.7-5.2l3.3-1.3c.6 1.4 2 3 4.4 3 2.9 0 4.6-1.7 4.6-5v-1.3a6 6 0 01-4.7 2 8.6 8.6 0 01-8.3-8.8c0-4.9 4-8.7 8.3-8.7 2.1 0 3.8.9 4.6 2h.1v-1.5h3.7zm-3.4 8.2c0-3-2-5.3-4.6-5.3-2.7 0-4.9 2.3-4.9 5.3s2.2 5.3 4.9 5.3c2.6 0 4.6-2.2 4.6-5.3zM88.3 1v25.6h-3.8V1h3.8zM102.9 21.3l3 2a8.6 8.6 0 01-7.3 3.8c-5 0-8.7-3.8-8.7-8.7 0-5.2 3.8-8.8 8.2-8.8 4.6 0 6.8 3.6 7.5 5.6l.4 1L94.3 21a4.4 4.4 0 004.3 2.7c1.9 0 3.2-1 4.3-2.4zM93.7 18l7.8-3.2c-.5-1.1-1.7-1.9-3.2-1.9-2 0-4.7 1.8-4.6 5.1zM13.7 16.1v-3.7h12.5l.2 2.3c0 2.8-.8 6.2-3.3 8.6a12.3 12.3 0 01-9.4 3.9C6.3 27.2 0 21 0 13.6 0 6 6.3 0 13.7 0c4.1 0 7 1.6 9.3 3.7l-2.6 2.6A9.7 9.7 0 004 13.5c0 5.5 4.3 10 9.7 10a9 9 0 006.9-2.8c1-1 1.7-2.6 2-4.6h-8.9z"/></svg>