<svg xmlns="http://www.w3.org/2000/svg" fill="none" viewBox="0 0 92 35"><path fill="#fff" d="M31.3 9v21.7H28V21h-5v9.8h-3.4V9h3.3v9.2h5V9h3.4zm17.3 26h-3v-4.2h-9.3V35h-3v-7h1.3a47 47 0 002.2-17V9h10.1v19h1.8v7zm-5-23.2h-3.8v.4c0 4.5-.2 11.2-2 15.8h5.8V11.8zM58 31c-4.6 0-7.3-3.5-7.3-10.2 0-7 2-12 6.6-12 3.6 0 6 2.7 6 10v2h-9c0 4.8 1.3 7.4 4 7.4 1.9 0 3.4-.9 4.2-1.5l.8 2.6A8.8 8.8 0 0158 31zm-3.8-13h5.6c0-3.8-.6-6.5-2.5-6.5-2.1 0-2.9 2.6-3 6.4zm15.9 2v10.8h-3.4V9h3.4v10l5.2-10h3.5l-5.5 10.2 6.2 11.5h-3.7L70.1 20zm9.9-.1c0-6.8 2.6-11.1 7.7-11.1 2 0 3 .5 4 1l-.4 3.3a5.7 5.7 0 00-3.6-1.5c-2.5 0-4.2 2.7-4.2 8.1 0 5.5 1.3 8.6 4 8.6 1.7 0 3-.7 3.7-1.4l.8 2.5a6.6 6.6 0 01-4.5 1.6C82.8 31 80 27.3 80 20zM9.1 19L4 30.7H0l5.8-12.6c-2.7-1.3-4.5-3.8-4.5-8.4 0-6.5 4-9.7 9-9.7h5v30.7h-3.4V19H9.1zM12 2.8h-1.8C7.4 2.8 5 4.6 5 9.7c0 5 2.3 6.5 5.2 6.5H12V2.8z"/></svg>