<svg xmlns="http://www.w3.org/2000/svg" fill="none" viewBox="0 0 98 130"><g fill="#DD0707" opacity=".5"><path d="M88.6 122l-.7-.4-2-1.1c-9-5-21.1-9-33-14.4-4.5-2-8.8-4.1-13-6.6C9.3 81.2 2.2 50.9 15.7 18.9l-.4-.1C1.6 51 8.6 81.5 39.5 100c4.2 2.4 8.5 4.8 13 6.7 11.9 5.5 24 9.4 33 14.3l1.6 1 .7.3c3.5 2 6.5 4.6 9 7.7l.7-.5c-2.5-3-5.6-5.6-9-7.5z"/><path d="M74.8 114.2c.8-3.2.6-7-6-12.3a60.6 60.6 0 00-5.2-3.6c.5 11 6.6 12.4 11.2 15.9zM58.9 106.9c1.7 1.2 3.4 2 4 2.6 1.3-6.6-5-11.6-10.5-15.4-.2 3 .5 5.8 2 8.4 1.2 1.8 2.7 3.2 4.5 4.4zM51.4 104.6c1-5.8-3.4-10.7-9-15.7-1.4 8.3 3.5 12 9 15.7zM40.3 98.8c1.1-4.7-1.6-9.9-6.6-16-2.6 6.6.6 11.6 6.6 16zM30 91.6c1.9-4.9-.9-11.5-3.4-16.2-3 4.4-2.8 10 3.5 16.2zM21.3 66.6c-4.8 4.6-3.7 10.9 0 16.4 2.6-4.7 1.4-11.4 0-16.4zM18.1 56.5c-3.4 2.2-6.3 7.3-3 16 3.2-4 3.6-11.2 3-16zM16.4 50.1L17 46C13 47.5 9.6 52 11.2 61c2.8-3 4.6-6.8 5.2-11zM18 34.8c-3.8 1-8 4.9-8.2 14 5-3.6 7.5-10.6 8.1-14zM20.6 23.8c-6 .8-8.6 7.2-9.8 13 4.6-3 8.2-7.6 9.8-13zM13.8 24.9c5-2.5 9-6.7 11-11.8-7 0-10 9-11 11.8z"/><path d="M26 0c-7.6 6-10.1 12.6-9.7 17.2 4.1-2.6 8-12.6 9.6-17.2zM73 116.7c-1.1-.2-7.7-2.1-11.6-1.2-3 .8-5.9 2.3-8.3 4.2 2.1.6 4.3 1 6.6 1.2 8.5 1.1 11.4-1.6 13.3-4.2zM48.5 109.7c-3.1.5-6.1 1.6-8.9 3.2 2.1.8 4.3 1.5 6.7 2 2.8.5 5.7.5 8.6 0a9 9 0 005.1-3.5c-.5 0-2.5-.7-4.7-1.2s-4.5-.7-6.8-.5zM26.5 104.3c2 1.1 4.1 2 6.4 2.9 8.2 2.8 11.8.6 14.1-1.8-1.1-.3-7.3-2.9-11.2-2.9-3.1.1-6.2.7-9.3 1.8zM14.8 93c1.8 1.6 3.7 3 5.7 4.2 7.3 4.3 11.6 3.1 14.4 1-5.3-2.2-7.1-5.7-20-5.2zM23.9 89.2c-5.7-4-5.4-6.8-18-10 4 6.4 10.9 13 18 10zM1.2 64c.5 2.1 1.4 4.1 2.5 6 3.8 7 8 8.3 11.7 8-4.2-5.1-2.9-7.7-14.2-14zM10.2 65C7.6 59.4 9.3 57 0 48.4.6 55.5 2.9 63.7 10.2 65zM8.2 51.4c-1-6.2.9-8.2-6-18-1 6.9-.6 14.9 6 18zM9.2 37.6c.2-5.8 2.5-7.8-2.3-18.5-2.2 6.4-3.2 14 2.3 18.5zM13.8 5.9c-3.2 6-5.4 13-1 18.3 1.2-5.8 3.7-6.9 1-18.3z"/></g></svg>