<svg xmlns="http://www.w3.org/2000/svg" fill="none" viewBox="0 0 98 130"><g fill="#DD0707" opacity=".5"><path d="M9.4 122l.7-.4 2-1.1c9-5 21.1-9 33-14.4 4.5-2 8.8-4.1 13-6.6 30.7-18.3 37.8-48.6 24.3-80.6l.4-.1C96.4 51 89.4 81.5 58.5 100c-4.2 2.4-8.5 4.8-13 6.7-11.9 5.5-24 9.4-33 14.3l-1.6 1-.7.3c-3.5 2-6.5 4.6-9 7.7l-.7-.5c2.5-3 5.6-5.6 9-7.5z"/><path d="M23.2 114.2c-.8-3.2-.6-7 6-12.3 1.7-1.3 3.5-2.5 5.2-3.6-.5 11-6.6 12.4-11.2 15.9zM39.1 106.9c-1.7 1.2-3.4 2-4 2.6-1.3-6.6 5-11.6 10.5-15.4.2 3-.5 5.8-2 8.4a17.6 17.6 0 01-4.5 4.4zM46.6 104.6c-1-5.8 3.4-10.7 9-15.7 1.4 8.3-3.5 12-9 15.7zM57.7 98.8c-1.1-4.7 1.6-9.9 6.6-16 2.6 6.6-.6 11.6-6.6 16zM68 91.6c-1.9-4.9.9-11.5 3.4-16.2 3 4.4 2.8 10-3.5 16.2zM76.7 66.6c4.8 4.6 3.7 10.9 0 16.4-2.6-4.7-1.4-11.4 0-16.4zM79.9 56.5c3.4 2.2 6.3 7.3 3 16-3.2-4-3.6-11.2-3-16zM81.6 50.1A32 32 0 0181 46C85 47.5 88.4 52 86.8 61c-2.8-3-4.6-6.8-5.2-11zM80 34.8c3.8 1 8 4.9 8.2 14-5-3.6-7.5-10.6-8.1-14zM77.4 23.8c6 .8 8.6 7.2 9.8 13-4.6-3-8.2-7.6-9.8-13zM84.2 24.9c-5-2.5-9-6.7-11-11.8 7 0 10 9 11 11.8z"/><path d="M72 0c7.6 6 10.1 12.6 9.7 17.2-4.1-2.6-8-12.6-9.6-17.2zM25 116.7c1.1-.2 7.7-2.1 11.6-1.2 3 .8 5.9 2.3 8.3 4.2-2.1.6-4.3 1-6.6 1.2-8.5 1.1-11.4-1.6-13.3-4.2zM49.5 109.7c3.1.5 6.1 1.6 8.9 3.2-2.1.8-4.3 1.5-6.7 2a22 22 0 01-8.6 0 9 9 0 01-5.1-3.5c.5 0 2.5-.7 4.7-1.2s4.5-.7 6.8-.5zM71.5 104.3c-2 1.1-4.1 2-6.4 2.9-8.2 2.8-11.8.6-14.1-1.8 1.1-.3 7.3-2.9 11.2-2.9 3.1.1 6.2.7 9.3 1.8zM83.2 93c-1.8 1.6-3.7 3-5.7 4.2-7.3 4.3-11.6 3.1-14.4 1 5.3-2.2 7.1-5.7 20-5.2zM74.1 89.2c5.7-4 5.4-6.8 18-10-4 6.4-10.9 13-18 10zM96.8 64c-.5 2.1-1.4 4.1-2.5 6-3.8 7-8 8.3-11.7 8 4.2-5.1 2.9-7.7 14.2-14zM87.8 65c2.6-5.6.9-8 10.2-16.6-.6 7.1-2.9 15.3-10.2 16.6zM89.8 51.4c1-6.2-.9-8.2 6-18 1 6.9.6 14.9-6 18zM88.8 37.6c-.2-5.8-2.5-7.8 2.3-18.5 2.2 6.4 3.2 14-2.3 18.5zM84.2 5.9c3.2 6 5.4 13 1 18.3-1.2-5.8-3.7-6.9-1-18.3z"/></g></svg>