<svg width="836" height="502" viewBox="0 0 836 502" fill="none" xmlns="http://www.w3.org/2000/svg">
<g opacity="0.5">
<g opacity="0.5">
<path d="M778.335 465.151H60.6504V23.6415C60.6504 11.1887 70.8437 1 83.3022 1H756.061C768.519 1 778.713 11.1887 778.713 23.6415V465.151H778.335Z" stroke="white" stroke-miterlimit="10"/>
<path d="M749.266 37.2263H89.7207V409.679H749.266V37.2263Z" stroke="white" stroke-miterlimit="10"/>
<path d="M668.096 444.396H174.664V465.528H668.096V444.396Z" stroke="white" stroke-miterlimit="10"/>
<path d="M668.096 456.094H174.664V465.528H668.096V456.094Z" stroke="white" stroke-miterlimit="10"/>
<path d="M4.39941 484.019C4.39941 484.019 8.92977 490.811 28.1838 498.358C32.3366 499.868 37.2445 501 41.7749 501H801.366C806.651 501 812.314 499.868 817.222 497.604C822.885 494.962 827.793 490.811 831.945 484.396H4.39941V484.019Z" stroke="white" stroke-miterlimit="10"/>
<path d="M829.301 484.019H6.66295C3.26518 484.019 1 481.377 1 478.358V471.189C1 467.792 3.64271 465.528 6.66295 465.528H829.301C832.699 465.528 834.964 468.17 834.964 471.189V478.358C835.342 481.377 832.699 484.019 829.301 484.019Z" stroke="white" stroke-miterlimit="10"/>
<path d="M419.304 21.3774C422.848 21.3774 425.722 18.5053 425.722 14.9623C425.722 11.4194 422.848 8.54724 419.304 8.54724C415.759 8.54724 412.886 11.4194 412.886 14.9623C412.886 18.5053 415.759 21.3774 419.304 21.3774Z" stroke="white" stroke-miterlimit="10"/>
<path d="M336.248 8.92446H178.44C176.553 8.92446 175.42 7.41502 175.42 5.90559C175.42 4.01879 176.93 2.88672 178.44 2.88672H335.87C337.758 2.88672 338.89 4.39615 338.89 5.90559C339.268 7.41502 337.758 8.92446 336.248 8.92446Z" stroke="white" stroke-miterlimit="10"/>
<path d="M657.527 8.92446H500.096C498.209 8.92446 497.076 7.41502 497.076 5.90559C497.076 4.01879 498.586 2.88672 500.096 2.88672H657.527C659.414 2.88672 660.547 4.39615 660.547 5.90559C660.547 7.41502 659.037 8.92446 657.527 8.92446Z" stroke="white" stroke-miterlimit="10"/>
<path d="M772.294 131.943C771.161 131.943 770.406 131.189 770.406 130.057V77.9812C770.406 76.8491 771.161 76.0944 772.294 76.0944C773.426 76.0944 774.181 76.8491 774.181 77.9812V130.057C774.181 131.189 773.049 131.943 772.294 131.943Z" stroke="white" stroke-miterlimit="10"/>
<path d="M67.445 131.943C66.3126 131.943 65.5576 131.189 65.5576 130.057V77.9812C65.5576 76.8491 66.3126 76.0944 67.445 76.0944C68.5775 76.0944 69.3324 76.8491 69.3324 77.9812V130.057C69.3324 131.189 68.5775 131.943 67.445 131.943Z" stroke="white" stroke-miterlimit="10"/>
</g>
<path d="M312.463 120.245L127.474 305.151M312.463 305.151H127.474V120.245H312.463V305.151ZM127.474 120.245L312.463 305.151L127.474 120.245Z" stroke="white" stroke-width="1.5" stroke-miterlimit="10"/>
<path d="M711.513 120.245L561.634 379.868M711.513 379.868H561.634V120.245H711.513V379.868ZM561.634 120.245L711.513 379.491L561.634 120.245Z" stroke="white" stroke-width="1.5" stroke-miterlimit="10"/>
<path d="M345.309 126.283H508.402" stroke="white" stroke-width="1.5" stroke-miterlimit="10" stroke-linecap="round"/>
<path d="M345.309 140.623H508.402" stroke="white" stroke-width="1.5" stroke-miterlimit="10" stroke-linecap="round"/>
<path d="M345.309 154.962H508.402" stroke="white" stroke-width="1.5" stroke-miterlimit="10" stroke-linecap="round"/>
<path d="M345.309 169.302H508.402" stroke="white" stroke-width="1.5" stroke-miterlimit="10" stroke-linecap="round"/>
<path d="M345.309 183.264H508.402" stroke="white" stroke-width="1.5" stroke-miterlimit="10" stroke-linecap="round"/>
<path d="M345.309 197.604H508.402" stroke="white" stroke-width="1.5" stroke-miterlimit="10" stroke-linecap="round"/>
<path d="M345.309 211.944H395.143" stroke="white" stroke-width="1.5" stroke-miterlimit="10" stroke-linecap="round"/>
<path d="M416.662 238.359H345.309V260.245H416.662V238.359Z" fill="white" stroke="white" stroke-width="1.5" stroke-miterlimit="10" stroke-linecap="round"/>
<path d="M508.402 238.359H437.049V260.245H508.402V238.359Z" stroke="white" stroke-width="1.5" stroke-miterlimit="10" stroke-linecap="round"/>
<path d="M711.511 68.1696H640.158V90.0564H711.511V68.1696Z" stroke="white" stroke-width="1.5" stroke-miterlimit="10" stroke-linecap="round"/>
<path d="M221.856 59.8679H127.474V97.6038H221.856V59.8679Z" stroke="white" stroke-width="1.5" stroke-miterlimit="10"/>
<path d="M372.867 72.3209H297.361V85.5285H372.867V72.3209Z" fill="white"/>
<path d="M486.127 72.3209H410.621V85.5285H486.127V72.3209Z" fill="white"/>
<path d="M599.387 72.3209H523.881V85.5285H599.387V72.3209Z" fill="white"/>
<path d="M467.251 335.34H127.474V348.547H467.251V335.34Z" fill="white"/>
<path d="M127.474 371.189H508.402" stroke="white" stroke-width="1.5" stroke-miterlimit="10" stroke-linecap="round"/>
<path d="M127.474 385.528H380.796" stroke="white" stroke-width="1.5" stroke-miterlimit="10" stroke-linecap="round"/>
</g>
</svg>
