<svg width="1651" height="300" viewBox="0 0 1651 300" fill="none" xmlns="http://www.w3.org/2000/svg">
<path opacity="0.5" fill-rule="evenodd" clip-rule="evenodd" d="M436.826 145.028C437.456 145.658 438.478 145.658 439.108 145.028L446.315 137.835C446.39 137.782 446.461 137.723 446.527 137.656C446.847 137.337 447.004 136.918 447 136.501C447.004 136.083 446.847 135.663 446.527 135.344C446.461 135.278 446.39 135.218 446.315 135.166L439.108 127.972C438.478 127.343 437.456 127.343 436.826 127.972C436.195 128.601 436.195 129.622 436.826 130.251L441.472 134.889L427.611 134.889C426.721 134.889 426 135.61 426 136.5C426 137.39 426.721 138.111 427.611 138.111L441.473 138.111L436.826 142.75C436.195 143.379 436.195 144.399 436.826 145.028Z" fill="white"/>
<path opacity="0.5" fill-rule="evenodd" clip-rule="evenodd" d="M993.826 145.028C994.456 145.658 995.478 145.658 996.108 145.028L1003.32 137.835C1003.39 137.782 1003.46 137.723 1003.53 137.656C1003.85 137.337 1004 136.918 1004 136.501C1004 136.083 1003.85 135.663 1003.53 135.344C1003.46 135.278 1003.39 135.218 1003.32 135.166L996.108 127.972C995.478 127.343 994.456 127.343 993.826 127.972C993.195 128.601 993.195 129.622 993.826 130.251L998.472 134.889L984.611 134.889C983.721 134.889 983 135.61 983 136.5C983 137.39 983.721 138.111 984.611 138.111L998.473 138.111L993.826 142.75C993.195 143.379 993.195 144.399 993.826 145.028Z" fill="white"/>
<g opacity="0.5">
<path d="M269.634 300H0.320285C0.137265 300 0 299.667 0 299C0 298.5 0.137265 298 0.320285 298H269.68C269.863 298 270 298.333 270 299C269.954 299.667 269.817 300 269.634 300Z" fill="white"/>
<mask id="path-4-inside-1" fill="white">
<path d="M211.509 0H57.4912C53.8325 0 51 2.8481 51 6.5269V209.573C51 213.133 53.8325 216.1 57.4912 216.1H83.9279L71.4177 300H82.2756L94.7859 215.981H174.096L186.606 299.881H197.464L185.072 215.981H211.509C215.049 215.981 218 213.133 218 209.454V6.5269C218 2.8481 215.049 0 211.509 0Z"/>
</mask>
<path d="M211.509 0H57.4912C53.8325 0 51 2.8481 51 6.5269V209.573C51 213.133 53.8325 216.1 57.4912 216.1H83.9279L71.4177 300H82.2756L94.7859 215.981H174.096L186.606 299.881H197.464L185.072 215.981H211.509C215.049 215.981 218 213.133 218 209.454V6.5269C218 2.8481 215.049 0 211.509 0Z" stroke="white" stroke-width="3" mask="url(#path-4-inside-1)"/>
<path d="M193.687 208.03H75.3119C74.6038 208.03 74.0137 207.437 74.0137 206.725C74.0137 206.013 74.6038 205.419 75.3119 205.419H193.805C194.513 205.419 195.103 206.013 195.103 206.725C194.985 207.437 194.395 208.03 193.687 208.03Z" fill="white"/>
<path d="M180.588 24.565V20.5302H176.575V21.9542H137.746V20.5302H133.733V21.9542H95.0225V20.5302H91.0098V24.565H95.0225V23.1409H125.354C107.179 27.6504 93.4882 43.7896 92.426 63.133H91.0098V67.1678H95.0225V63.133H93.7243C94.9045 41.5349 112.254 24.209 133.733 23.2596V24.565H137.746V23.2596C159.226 24.3276 176.575 41.6536 177.755 63.133H176.457V67.1678H180.47V63.133H179.054C177.991 43.7896 164.301 27.7691 146.126 23.1409H176.457V24.565H180.588Z" fill="white"/>
<path d="M64.6908 196.756C63.9827 196.756 63.3926 196.163 63.3926 195.451V20.53C63.3926 19.818 63.9827 19.2246 64.6908 19.2246C65.3989 19.2246 65.989 19.818 65.989 20.53V195.451C65.989 196.163 65.3989 196.756 64.6908 196.756Z" fill="white"/>
<path d="M160.994 137.54C159.932 136.471 158.87 135.285 157.926 133.979C160.876 117.009 162.646 97.3101 160.05 80.4588C157.217 61.5902 137.626 38.212 136.682 37.2626C136.21 36.6693 135.148 36.6693 134.675 37.2626C133.849 38.212 114.14 61.7088 111.307 80.3402C108.829 97.0728 110.481 116.416 113.432 133.386C112.369 134.929 111.189 136.234 110.009 137.54C97.0267 150.475 91.0076 169.937 94.4302 188.093C95.0203 191.06 95.7284 193.908 96.5546 196.756C96.6726 197.35 97.2627 197.706 97.7348 197.706H97.8528C98.4429 197.706 98.915 197.231 99.033 196.638C99.033 196.519 99.9772 190.229 101.157 183.94C103.046 173.853 110.009 165.783 118.743 163.172C119.097 163.054 119.569 162.935 120.041 162.816C122.047 169.699 123.581 174.09 124.054 174.684C124.172 174.802 124.408 175.04 124.644 175.04L123.227 181.922C123.109 182.278 123.227 182.753 123.463 182.99C123.699 183.346 124.054 183.465 124.408 183.465H132.669C133.141 189.992 133.731 194.976 133.849 196.638C133.967 197.35 134.439 197.824 135.148 197.824C135.856 197.824 136.328 197.35 136.446 196.638C136.446 196.519 137.036 191.179 137.862 183.465H146.242C146.596 183.465 146.95 183.346 147.186 182.99C147.422 182.634 147.54 182.278 147.422 181.922L146.005 175.158C146.36 175.158 146.832 174.921 147.068 174.684C147.54 174.09 149.192 169.818 151.08 162.935C151.316 163.054 151.67 163.054 151.907 163.172C160.64 165.665 167.485 173.853 169.492 183.94C170.672 190.229 171.616 196.638 171.616 196.638C171.734 197.231 172.206 197.706 172.796 197.706H172.914C173.504 197.706 173.976 197.35 174.095 196.756C174.921 194.027 175.629 191.06 176.219 188.093C179.878 169.818 173.976 150.475 160.994 137.54ZM119.451 160.087C118.979 160.206 118.625 160.324 118.152 160.443C108.475 163.291 100.921 172.191 98.797 183.228C98.3249 185.601 97.9708 187.975 97.6168 189.992C97.3807 189.161 97.2627 188.331 97.1447 187.5C93.8401 170.174 99.5051 151.661 111.897 139.32C112.723 138.608 113.432 137.777 114.14 136.828C115.792 145.609 117.68 153.204 119.097 158.782C119.215 159.019 119.215 159.375 119.333 159.612C119.451 159.85 119.451 159.968 119.451 160.087ZM126.296 180.617L127.476 174.802H132.315C132.433 176.82 132.551 178.718 132.787 180.617H126.296ZM135.384 182.041C135.384 181.922 135.384 181.922 135.384 181.804C135.148 178.837 134.911 175.989 134.793 173.141L134.675 172.191C134.203 164.715 133.967 158.544 133.849 153.679C133.849 150.593 133.849 147.864 133.849 145.372C133.849 145.134 133.849 145.016 133.849 144.778C133.849 144.541 133.849 144.422 133.849 144.185C134.085 137.302 134.793 134.691 135.266 133.623C135.384 133.386 135.62 133.149 135.738 133.03C136.092 133.267 137.39 135.047 137.508 145.846C137.508 146.203 137.508 146.677 137.508 147.152C137.508 148.695 137.508 150.356 137.39 152.017C137.39 152.136 137.39 152.255 137.39 152.255C137.39 152.729 137.39 153.204 137.39 153.56C137.272 158.188 136.918 163.884 136.446 170.886C136.21 174.328 135.856 177.888 135.502 181.566C135.502 181.685 135.502 181.685 135.502 181.804C135.502 182.278 135.384 182.634 135.384 183.109C135.502 182.872 135.384 182.397 135.384 182.041ZM138.334 180.617C138.334 180.498 138.334 180.498 138.334 180.38C138.452 178.6 138.688 176.701 138.806 174.802H143.645L144.825 180.617H138.334ZM145.533 172.31H144.707H139.042C139.16 171.242 139.16 170.174 139.278 169.106C139.278 168.987 139.278 168.869 139.278 168.869C139.278 168.157 139.396 167.445 139.396 166.733C139.396 166.614 139.396 166.495 139.396 166.377C139.396 165.902 139.396 165.546 139.514 165.071C139.514 164.597 139.632 164.003 139.632 163.528C139.632 163.172 139.632 162.816 139.75 162.342C139.75 161.748 139.868 161.155 139.868 160.562C139.868 160.324 139.868 160.206 139.868 159.968C140.576 146.203 140.222 139.082 139.396 135.403C138.806 132.674 138.216 131.843 137.744 131.487C137.626 131.369 137.508 131.369 137.508 131.25C137.39 131.131 137.39 131.131 137.272 131.013C137.154 130.894 137.036 130.894 136.918 130.894C136.8 130.894 136.8 130.775 136.682 130.775C136.564 130.775 136.446 130.657 136.328 130.657H136.21C136.092 130.657 135.974 130.657 135.738 130.657C135.62 130.657 135.502 130.657 135.266 130.657H135.148C135.03 130.657 134.911 130.657 134.793 130.775C134.675 130.775 134.675 130.894 134.557 130.894C134.439 130.894 134.321 131.013 134.203 131.013C134.085 131.013 134.085 131.131 133.967 131.25C133.849 131.369 133.731 131.369 133.731 131.487C132.905 132.437 130.663 134.81 131.135 155.815C131.135 155.934 131.135 156.052 131.135 156.171C131.135 156.646 131.135 157.12 131.135 157.595C131.253 162.46 131.489 167.445 131.843 172.191H126.06H125.706C125.116 170.767 123.699 166.614 122.047 160.68C120.395 154.628 117.916 144.897 115.91 133.386C115.91 133.267 115.91 133.149 115.792 133.03C112.96 116.535 111.189 97.4288 113.786 80.5775C116.146 64.913 131.489 44.9763 135.502 39.9921C139.514 45.0949 154.857 64.913 157.217 80.5775C159.814 97.6661 158.044 117.009 155.093 133.505C155.093 133.623 154.975 133.742 154.975 133.861C153.087 144.422 150.844 153.441 149.192 159.494C149.192 159.612 149.192 159.612 149.074 159.731C148.956 160.087 148.838 160.443 148.838 160.68C147.422 166.733 146.123 170.886 145.533 172.31ZM173.976 187.5C173.858 188.331 173.622 189.161 173.504 189.992C173.15 187.975 172.796 185.601 172.324 183.228C170.2 172.191 162.646 163.291 152.969 160.443C152.733 160.324 152.379 160.324 152.143 160.206C152.261 159.968 152.261 159.731 152.379 159.494V159.375C153.913 153.916 155.683 146.321 157.454 137.421C158.044 138.133 158.634 138.845 159.342 139.438C171.498 151.661 177.163 170.174 173.976 187.5ZM150.372 92.2073C150.372 83.9003 143.645 77.1361 135.384 77.1361C127.122 77.1361 120.395 83.9003 120.395 92.2073C120.395 100.514 127.122 107.278 135.384 107.278C143.645 107.16 150.372 100.396 150.372 92.2073ZM135.384 104.668C128.538 104.668 122.991 99.0902 122.991 92.2073C122.991 85.3243 128.538 79.7468 135.384 79.7468C142.229 79.7468 147.776 85.3243 147.776 92.2073C147.776 98.9715 142.229 104.668 135.384 104.668Z" fill="#DD0707"/>
</g>
<g opacity="0.5">
<path d="M865.634 300H596.32C596.137 300 596 299.667 596 299C596 298.5 596.137 298 596.32 298H865.68C865.863 298 866 298.333 866 299C865.954 299.667 865.817 300 865.634 300Z" fill="white"/>
<path d="M746.069 252.217H714.032L709.68 273.396H750.248L746.069 252.217Z" fill="#B6B6B6"/>
<path d="M698.188 163.302C693.835 176.429 687.045 185.706 680.08 192.007C654.312 215.461 641.95 250.117 648.915 284.247C649.959 289.498 651.352 294.749 653.267 300C653.267 300 655.183 288.098 657.62 276.021C661.625 256.418 676.076 240.49 695.402 235.414C699.059 234.539 702.715 233.839 706.545 233.839L698.188 163.302Z" fill="#DD0707"/>
<path d="M761.912 163.302C766.265 176.429 773.055 185.706 780.02 192.007C805.614 215.286 818.15 250.117 811.012 284.247C809.967 289.498 808.574 294.749 806.659 300C806.659 300 804.744 288.098 802.306 276.021C798.302 256.418 783.85 240.49 764.524 235.414C760.868 234.539 757.211 233.839 753.381 233.839L761.912 163.302Z" fill="#DD0707"/>
<path d="M707.59 255.018C707.938 256.593 709.331 257.643 710.898 257.643H729.876H749.202C750.769 257.643 752.162 256.593 752.51 255.018C754.774 244.866 762.957 228.413 768.18 195.158C768.354 194.457 768.354 193.757 768.529 193.057C768.529 192.882 768.529 192.532 768.703 192.357C768.877 191.307 769.051 190.082 769.225 189.032C769.225 188.856 769.225 188.856 769.225 188.681C769.399 187.631 769.573 186.756 769.573 185.706V185.531C769.921 183.431 770.096 181.155 770.27 178.88C770.27 178.705 770.27 178.53 770.27 178.355C770.444 177.305 770.444 176.429 770.618 175.379C770.618 175.204 770.618 175.029 770.618 174.854C770.792 172.579 770.966 170.128 771.14 167.678C771.14 167.328 771.14 167.153 771.14 166.803C771.14 165.753 771.314 164.877 771.314 163.827C771.314 163.477 771.314 163.302 771.314 162.952C771.314 161.727 771.488 160.327 771.488 159.102C771.488 157.876 771.663 156.651 771.663 155.251C771.663 154.901 771.663 154.551 771.663 154.201C771.663 153.151 771.663 152.275 771.837 151.225C771.837 150.875 771.837 150.525 771.837 150.175C771.837 148.775 772.011 147.55 772.011 146.149C772.011 146.149 772.011 146.149 772.011 145.974C772.011 144.574 772.011 143.349 772.185 141.949C772.185 141.599 772.185 141.074 772.185 140.723C772.185 139.848 772.185 138.973 772.185 138.098H687.393C688.263 212.485 704.281 240.14 707.59 255.018Z" fill="white"/>
<path d="M730.746 179.755C717.514 179.755 729.876 300 729.876 300C729.876 300 743.979 179.755 730.746 179.755Z" fill="#DD0707"/>
<mask id="path-15-inside-2" fill="white">
<path d="M772.533 102.917C772.359 93.8156 771.663 84.8891 770.444 76.3127C765.569 42.8821 730.05 0 730.05 0C730.05 0 694.531 42.8821 689.482 76.3127C688.263 84.8891 687.567 93.8156 687.393 102.917H772.533Z"/>
</mask>
<path d="M772.533 102.917C772.359 93.8156 771.663 84.8891 770.444 76.3127C765.569 42.8821 730.05 0 730.05 0C730.05 0 694.531 42.8821 689.482 76.3127C688.263 84.8891 687.567 93.8156 687.393 102.917H772.533Z" stroke="white" stroke-width="3" mask="url(#path-15-inside-2)"/>
</g>
<g opacity="0.5">
<path d="M1650.29 300H1130.62C1130.26 300 1130 299.667 1130 299C1130 298.5 1130.26 298 1130.62 298H1650.38C1650.74 298 1651 298.333 1651 299C1650.91 299.667 1650.65 300 1650.29 300Z" fill="white"/>
<mask id="path-17-inside-3" fill="white">
<path d="M1319.45 172.657C1324.79 173.238 1329.55 174.4 1333.61 176.143C1337.67 177.885 1341.04 180.209 1343.83 183.23C1346.5 186.135 1348.47 189.737 1349.63 193.919C1350.79 198.102 1351.03 202.866 1350.45 208.327C1349.63 215.298 1347.78 220.875 1344.76 225.174C1341.74 229.473 1337.79 232.61 1332.8 234.469L1344.29 269.21C1344.52 269.791 1344.52 270.372 1344.52 270.837C1344.41 271.65 1344.06 272.347 1343.48 272.928C1342.9 273.509 1342.2 273.741 1341.51 273.625L1324.9 271.766C1323.28 271.534 1322.12 271.069 1321.54 270.139C1320.96 269.21 1320.49 268.28 1320.14 267.467L1309.81 236.212L1298.55 234.934L1295.3 264.679C1295.18 265.724 1294.72 266.538 1294.02 267.235C1293.32 267.932 1292.51 268.164 1291.58 268.048L1275.56 266.305C1274.63 266.189 1273.94 265.724 1273.35 264.911C1272.77 264.098 1272.54 263.168 1272.66 262.122L1282.53 172.308C1282.64 171.263 1283.11 170.449 1283.8 169.752C1284.5 169.055 1285.31 168.823 1286.24 168.939L1319.45 172.657ZM1300.99 213.323L1314.8 214.833C1318.17 215.182 1321.19 214.833 1323.51 213.555C1325.95 212.277 1327.34 209.721 1327.81 205.887C1328.27 202.053 1327.46 199.148 1325.37 197.405C1323.28 195.662 1320.49 194.617 1317.12 194.268L1303.31 192.758L1300.99 213.323Z"/>
</mask>
<path d="M1319.45 172.657C1324.79 173.238 1329.55 174.4 1333.61 176.143C1337.67 177.885 1341.04 180.209 1343.83 183.23C1346.5 186.135 1348.47 189.737 1349.63 193.919C1350.79 198.102 1351.03 202.866 1350.45 208.327C1349.63 215.298 1347.78 220.875 1344.76 225.174C1341.74 229.473 1337.79 232.61 1332.8 234.469L1344.29 269.21C1344.52 269.791 1344.52 270.372 1344.52 270.837C1344.41 271.65 1344.06 272.347 1343.48 272.928C1342.9 273.509 1342.2 273.741 1341.51 273.625L1324.9 271.766C1323.28 271.534 1322.12 271.069 1321.54 270.139C1320.96 269.21 1320.49 268.28 1320.14 267.467L1309.81 236.212L1298.55 234.934L1295.3 264.679C1295.18 265.724 1294.72 266.538 1294.02 267.235C1293.32 267.932 1292.51 268.164 1291.58 268.048L1275.56 266.305C1274.63 266.189 1273.94 265.724 1273.35 264.911C1272.77 264.098 1272.54 263.168 1272.66 262.122L1282.53 172.308C1282.64 171.263 1283.11 170.449 1283.8 169.752C1284.5 169.055 1285.31 168.823 1286.24 168.939L1319.45 172.657ZM1300.99 213.323L1314.8 214.833C1318.17 215.182 1321.19 214.833 1323.51 213.555C1325.95 212.277 1327.34 209.721 1327.81 205.887C1328.27 202.053 1327.46 199.148 1325.37 197.405C1323.28 195.662 1320.49 194.617 1317.12 194.268L1303.31 192.758L1300.99 213.323Z" stroke="white" stroke-width="3" mask="url(#path-17-inside-3)"/>
<path d="M1462.25 31.0225L1438.1 0L1414.65 31.0225H1319.33L1269.41 80.4028H1318.63V92.1379H1320.96V80.4028H1366.35L1366.47 80.519L1366.58 80.4028H1367.63L1367.74 80.519L1367.86 80.4028H1413.26V268.629H1462.83V80.4028H1508.23L1508.34 80.519L1508.46 80.4028H1509.62L1559.54 31.0225H1462.25ZM1318.75 78.079H1275.21L1318.75 34.9729V78.079ZM1364.61 33.3462L1343.6 54.3765L1322.58 33.3462H1364.61ZM1321.07 34.9729L1342.09 56.0031L1321.07 77.0333V34.9729ZM1323.16 78.079L1343.71 57.5136L1364.26 78.079H1323.16ZM1365.89 76.6847L1345.22 56.0031L1365.89 35.3215V76.6847ZM1411.75 33.3462L1390.73 54.3765L1369.72 33.3462H1411.75ZM1368.21 34.9729L1389.22 56.0031L1368.21 77.0333V34.9729ZM1370.3 78.079L1390.85 57.5136L1411.4 78.079H1370.3ZM1413.49 76.9171L1392.47 55.8869L1413.49 34.8567V76.9171ZM1438.1 3.83424L1459.23 31.0225H1417.55L1438.1 3.83424ZM1458.88 33.3462L1438.1 54.1441L1417.32 33.3462H1458.88ZM1417.44 219.365L1438.1 198.683L1458.77 219.365H1417.44ZM1458.88 221.689L1438.1 242.486L1417.32 221.689H1458.88ZM1417.55 174.748H1458.88L1438.22 195.43L1417.55 174.748ZM1417.32 172.424L1438.1 151.627L1458.88 172.424H1417.32ZM1417.44 127.576H1459L1438.22 148.373L1417.44 127.576ZM1417.44 125.252L1438.22 104.57L1458.88 125.252H1417.44ZM1417.44 80.4028H1459L1438.22 101.201L1417.44 80.4028ZM1417.44 78.079L1438.1 57.3974L1458.77 78.079H1417.44ZM1415.81 34.9729L1436.48 55.7707L1415.69 76.5686V34.9729H1415.81ZM1415.81 82.1456L1436.59 102.943L1415.81 123.741V82.1456ZM1415.81 129.202L1436.59 150L1415.81 170.798V129.202ZM1415.81 176.259L1436.59 197.057L1415.81 217.854V176.259ZM1415.81 264.911V223.315L1436.59 244.113L1415.81 264.911ZM1417.55 266.421L1438.1 245.856L1458.65 266.421H1417.55ZM1460.63 265.027L1439.73 244.113L1460.63 223.199V265.027ZM1460.63 217.971L1439.73 197.057L1460.63 176.143V217.971ZM1460.63 170.798L1439.73 149.884L1460.63 128.97V170.798ZM1460.63 123.741L1439.73 102.827L1460.63 81.9132V123.741ZM1460.63 76.6847L1439.73 55.7707L1460.63 34.8567V76.6847ZM1506.49 33.3462L1485.47 54.3765L1464.46 33.3462H1506.49ZM1462.95 34.9729L1483.96 56.0031L1462.95 77.0333V34.9729ZM1465.04 78.079L1485.59 57.5136L1506.14 78.079H1465.04ZM1508.23 76.9171L1487.21 55.8869L1508.23 34.8567V76.9171ZM1510.55 33.3462H1554.09L1510.55 76.4524V33.3462Z" fill="white"/>
<path d="M1318.75 136.174C1315.85 136.174 1313.53 133.85 1313.53 130.945V86.9094C1313.53 84.0047 1315.85 81.6809 1318.75 81.6809C1321.65 81.6809 1323.97 84.0047 1323.97 86.9094V130.945C1323.97 133.85 1321.54 136.174 1318.75 136.174ZM1318.75 82.6104C1316.31 82.6104 1314.34 84.5856 1314.34 87.0256V131.061C1314.34 133.501 1316.31 135.476 1318.75 135.476C1321.19 135.476 1323.16 133.501 1323.16 131.061V86.9094C1323.05 84.5856 1321.07 82.6104 1318.75 82.6104Z" fill="white"/>
<path d="M1318.75 135.825C1316.08 135.825 1313.99 133.617 1313.99 131.061V117.583C1313.99 114.911 1316.2 112.819 1318.75 112.819C1321.42 112.819 1323.51 115.027 1323.51 117.583V131.061C1323.51 133.617 1321.3 135.825 1318.75 135.825Z" fill="#B6B6B6"/>
<path d="M1318.63 155.228C1318.28 155.228 1317.94 155.228 1317.7 155.112C1314.22 154.648 1311.78 151.743 1311.55 148.141C1311.55 147.328 1312.13 146.63 1312.94 146.514C1313.76 146.514 1314.45 147.095 1314.57 147.909C1314.69 150.465 1316.43 151.859 1318.05 152.091C1320.03 152.324 1321.65 151.162 1322.46 148.838C1323.97 144.423 1318.63 141.402 1318.4 141.17C1317.94 140.937 1317.59 140.356 1317.59 139.892V133.153C1317.59 132.339 1318.28 131.642 1319.1 131.642C1319.91 131.642 1320.61 132.339 1320.61 133.153V139.078C1323.28 140.937 1326.99 144.888 1325.37 149.884C1324.21 153.253 1321.65 155.228 1318.63 155.228Z" fill="#B6B6B6"/>
<path d="M1321.54 96.553H1315.73C1313.18 96.553 1310.97 94.4616 1310.97 91.7893V72.5019C1310.97 69.9458 1313.06 67.7382 1315.73 67.7382H1321.54C1324.09 67.7382 1326.3 69.8296 1326.3 72.5019V91.7893C1326.3 94.3454 1324.21 96.553 1321.54 96.553Z" fill="#B6B6B6"/>
<path d="M1318.75 151.975V194.5" stroke="white" stroke-width="1.5" stroke-miterlimit="10" stroke-linecap="round" stroke-linejoin="round"/>
<path d="M1192.66 298C1191.73 298 1191.04 297.652 1190.34 296.838C1189.64 296.141 1189.41 295.212 1189.41 294.166V203.887C1189.41 202.841 1189.76 202.028 1190.34 201.215C1191.04 200.517 1191.73 200.053 1192.66 200.053H1232.25C1237.71 200.053 1242.35 200.866 1246.19 202.609C1249.9 204.352 1252.92 206.559 1255.24 209.348C1257.45 212.136 1259.07 215.273 1260.12 218.759C1261.05 222.245 1261.63 225.731 1261.63 229.216C1261.63 231.889 1261.4 234.329 1260.81 236.304C1260.23 238.279 1259.65 240.022 1258.96 241.532C1258.26 242.926 1257.45 244.088 1256.63 245.018C1255.82 245.947 1255.24 246.528 1254.78 246.993C1258.03 249.549 1260.23 252.454 1261.51 255.707C1262.79 258.961 1263.37 263.027 1263.37 267.675C1263.37 271.509 1262.9 275.227 1261.86 278.829C1260.93 282.431 1259.31 285.684 1256.98 288.589C1254.78 291.377 1251.76 293.701 1248.16 295.444C1244.56 297.187 1240.15 298 1234.92 298H1192.66ZM1238.64 229.797C1238.64 227.357 1238.06 225.382 1236.78 223.988C1235.5 222.593 1233.65 221.78 1231.21 221.78H1212.17V237.698H1231.21C1233.65 237.698 1235.5 237.001 1236.78 235.49C1238.06 234.212 1238.64 232.237 1238.64 229.797ZM1212.17 276.389H1232.49C1234.92 276.389 1236.9 275.576 1238.41 273.949C1239.92 272.322 1240.61 270.347 1240.61 267.907C1240.61 265.467 1239.92 263.492 1238.41 261.865C1236.9 260.239 1234.92 259.425 1232.49 259.425H1212.17V276.389Z" fill="white"/>
<path d="M1398.98 200.169C1400.6 200.169 1401.88 200.634 1402.69 201.679C1403.5 202.725 1404.2 203.771 1404.43 204.7L1431.25 292.772C1431.6 293.701 1431.72 294.398 1431.72 294.863C1431.72 295.676 1431.48 296.373 1430.9 297.071C1430.32 297.652 1429.74 298 1429.05 298H1413.6C1411.98 298 1410.82 297.652 1410.12 296.838C1409.42 296.025 1408.96 295.328 1408.84 294.514L1405.36 282.896H1372.62L1369.14 294.514C1369.02 295.212 1368.56 296.025 1367.86 296.838C1367.16 297.652 1366 298 1364.38 298H1348.94C1348.24 298 1347.54 297.652 1347.08 297.071C1346.5 296.49 1346.27 295.792 1346.27 294.863C1346.27 294.398 1346.38 293.701 1346.73 292.772L1373.55 204.7C1373.9 203.655 1374.48 202.609 1375.29 201.679C1376.1 200.634 1377.38 200.169 1379.01 200.169H1398.98ZM1379.01 261.284H1398.98L1388.99 227.706L1379.01 261.284Z" fill="white"/>
<path d="M1492.55 298C1491.16 298 1490 297.535 1489.19 296.722C1488.37 295.909 1487.79 295.212 1487.56 294.747L1459.35 246.877V294.282C1459.35 295.328 1459 296.141 1458.42 296.954C1457.72 297.651 1457.03 298.116 1456.1 298.116H1439.96C1439.03 298.116 1438.33 297.768 1437.64 296.954C1436.94 296.257 1436.71 295.328 1436.71 294.282V204.003C1436.71 202.957 1437.06 202.144 1437.64 201.331C1438.33 200.634 1439.03 200.169 1439.96 200.169H1452.73C1454.12 200.169 1455.29 200.634 1456.1 201.447C1456.91 202.26 1457.49 202.957 1457.72 203.422L1485.94 251.292V204.003C1485.94 202.957 1486.28 202.144 1486.86 201.331C1487.56 200.634 1488.26 200.169 1489.19 200.169H1505.33C1506.25 200.169 1506.95 200.518 1507.65 201.331C1508.34 202.028 1508.58 202.957 1508.58 204.003V294.282C1508.58 295.328 1508.23 296.141 1507.65 296.954C1506.95 297.651 1506.25 298.116 1505.33 298.116H1492.55V298Z" fill="white"/>
<path d="M1552.69 200.169C1558.38 200.169 1563.49 201.098 1568.14 203.074C1572.78 204.933 1576.84 207.721 1580.21 211.091C1583.58 214.576 1586.25 218.643 1588.22 223.523C1590.19 228.287 1591.24 233.515 1591.47 239.208C1591.59 241.184 1591.59 242.926 1591.59 244.553C1591.59 246.18 1591.59 247.69 1591.59 249.201C1591.59 250.711 1591.59 252.222 1591.59 253.848C1591.59 255.475 1591.59 257.102 1591.47 259.077C1591.24 264.886 1590.19 270.115 1588.22 274.878C1586.36 279.642 1583.69 283.709 1580.44 287.194C1577.08 290.68 1573.13 293.353 1568.6 295.212C1563.96 297.071 1558.85 298.116 1553.27 298.116H1520.07C1519.14 298.116 1518.44 297.768 1517.75 296.954C1517.05 296.257 1516.82 295.328 1516.82 294.282V204.003C1516.82 202.957 1517.17 202.144 1517.75 201.331C1518.44 200.634 1519.14 200.169 1520.07 200.169H1552.69ZM1568.72 238.628C1568.25 227.938 1562.68 222.593 1552 222.593H1539.46V275.692H1552.58C1562.91 275.692 1568.25 270.347 1568.72 259.658C1568.83 257.682 1568.83 255.823 1568.83 254.081C1568.83 252.338 1568.83 250.711 1568.83 249.085C1568.83 247.458 1568.83 245.831 1568.83 244.088C1568.83 242.346 1568.83 240.603 1568.72 238.628Z" fill="white"/>
</g>
</svg>
