<?xml version="1.0" encoding="utf-8"?>
<!-- Generator: Adobe Illustrator 23.0.5, SVG Export Plug-In . SVG Version: 6.00 Build 0)  -->
<svg version="1.1" id="Layer_1" xmlns="http://www.w3.org/2000/svg" xmlns:xlink="http://www.w3.org/1999/xlink" x="0px" y="0px"
	 viewBox="0 0 500 509" style="enable-background:new 0 0 500 509;" xml:space="preserve">
<style type="text/css">
	.st0{fill:none;stroke:#FFFFFF;stroke-width:1.5;}
</style>
<path class="st0" d="M388.3,324.3L388.3,324.3c29.6,3.9,53.3,27.6,56.7,57.2l0,0c4.4,39.7-26.2,73.2-65,73.2
	c-18.4,0-34.9-7.3-46.5-19.4c0,0,0,0,0,0L203.7,305"/>
<path class="st0" d="M388.3,324.3c-21.3-2.4-41.2,5.3-54.8,18.9l-1,1c-10.3,10.3-27.5,10.3-37.8,0s-10.3-27.5,0-37.8l1.4-1.4
	c0,0,0,0,0,0c38.1-37.6,96.7-46.7,142.9-19.5c70.5,41.4,79.1,133.8,25.3,187.2c-46.7,46.2-121.9,46.2-168.1,0L166.4,342.7
	c0,0,0,0,0,0c-11.6-12.1-28.1-19.4-46.5-19.4c-38.8,0-69.8,33.4-65,73.2c3.4,29.6,27.1,53.3,56.7,57.2l0,0"/>
<path class="st0" d="M111.7,453.7c21.3,2.4,41.2-5.3,54.8-18.9l1-1c10.2-10.2,27.5-10.3,37.8,0"/>
<path class="st0" d="M60.8,285.4c-70.5,41.4-79.1,133.8-25.2,187.6c46.2,46.2,121.4,46.2,168.1,0l0,0"/>
<path class="st0" d="M60.8,285.4c46.2-27.1,105.2-18.1,142.9,19.5"/>
<path class="st0" d="M203.7,473.1l1.4-1.4c10.2-10.2,10.3-27,0-37.8"/>
<path class="st0" d="M469.1,66.6L469.1,66.6c35.3,19.9,39.7,65.3,12.8,91.7l0,0c-22.7,22.5-59.4,22.5-81.8,0l-54-54l-0.2-0.2h0v0
	l-0.2-0.2l-9.2-9.1c-5.8-6-14-9.6-23.1-9.6c-19.2,0-34.4,16.6-32.2,36.3v0c1.7,14.7,13.5,26.4,28.1,28.3l0,0l0,0
	c10.6,1.2,20.4-2.6,27.2-9.4l0.5-0.5c5.3-5.3,14-4.9,18.9,0.9c4.2,5.1,3.3,12.6-1.4,17.3l-0.2,0.2c0,0,0,0,0,0
	c-22.7,22.5-59.4,22.5-81.8,0c-26.2-26.2-22-71.1,12.3-91.3c19-11.1,42.2-9.7,60,1.9l1.2,0.8v-1.4V13.4c0-6.9,5.8-12.6,12.9-12.6
	c7.1,0,12.9,5.5,12.9,12.6v79.8v0.3l0.2,0.2l46.5,46.5c6,6,13.9,9.6,23.1,9.6c19.2,0,34.4-16.6,32.2-36.3l0,0
	c-1.7-14.7-13.5-26.4-28.1-28.3l0,0c-10.6-1.2-20.4,2.6-27.2,9.4l-0.5,0.5c-5.3,5.3-14,4.9-18.9-0.9c-4.2-5.1-3.3-12.6,1.4-17.3
	l0.2-0.2l3.5-3c0,0,0,0,0,0C422.3,58,448.3,54.8,469.1,66.6z"/>
<path class="st0" d="M0.8,59.4c9,0.2,16.7,5,21.4,12.1l0.4,0.7l0.6-0.5c9.7-7.6,22-12.3,35.5-12.3c31.7,0,57.6,25.5,58,57.2h-0.5
	v0.8v45.3c0,6.9-5.5,12.6-12.6,12.6c-6.9,0-12.6-5.5-12.6-12.6v-45.3c0-18-14.4-32.4-32.5-32.4S26,99.3,26,117.3v45.3
	c0,6.9-5.5,12.6-12.6,12.6c-6.9,0-12.6-5.8-12.6-12.6V59.4z"/>
<path class="st0" d="M222.8,163.2l-0.4-0.7l-0.7,0.5c-9.7,7.6-22,12.3-35.5,12.3c-32,0-58-25.9-58-57.9c0-32,26-57.9,58-57.9
	c32,0,58,25.9,58,57.9v57.9C235.2,175,227.3,170.3,222.8,163.2z M153.8,117.3c0,18,14.4,32.4,32.5,32.4c18,0,32.5-14.4,32.5-32.4
	c0-18-14.4-32.4-32.5-32.4C168.2,84.9,153.8,99.3,153.8,117.3z"/>
</svg>
