<svg width="502" height="502" viewBox="0 0 502 502" fill="none" xmlns="http://www.w3.org/2000/svg">
<path d="M1 173.246C1 268.171 78.3218 345.493 173.246 345.493C212.339 345.493 248.408 332.426 277.35 310.395L312.231 345.277C312.447 345.493 312.663 345.709 312.879 345.925C312.231 348.732 312.015 351.756 312.015 354.672C312.015 366.119 316.443 376.81 324.542 384.801L428.214 488.473C436.313 496.572 447.004 501 458.343 501C469.791 501 480.482 496.572 488.473 488.473C496.572 480.374 501 469.683 501 458.344C501 447.004 496.572 436.205 488.473 428.214L384.801 324.542C376.702 316.443 366.011 312.015 354.672 312.015C351.648 312.015 348.732 312.339 345.924 312.879C345.708 312.663 345.492 312.447 345.276 312.231L310.395 277.35C332.425 248.408 345.492 212.339 345.492 173.246C345.492 78.3219 268.171 1.00012 173.246 1.00012C78.3218 1.00012 1 78.3219 1 173.246Z" stroke="white" stroke-width="1.5" stroke-miterlimit="10"/>
<path d="M346.032 383.398L383.397 346.033L477.026 439.661C481.993 444.629 484.801 451.324 484.801 458.344C484.801 465.363 482.101 472.058 477.026 477.026C472.058 481.994 465.363 484.801 458.343 484.801C451.324 484.801 444.628 482.102 439.661 477.026L346.032 383.398ZM328.213 354.672C328.213 347.652 330.913 340.957 335.989 335.989C341.172 330.806 347.976 328.214 354.671 328.214C360.827 328.214 366.982 330.374 371.95 334.585L334.585 371.95C330.481 367.091 328.213 361.043 328.213 354.672ZM289.769 299.92C293.332 296.68 296.68 293.333 299.92 289.769L329.941 319.791C327.998 321.195 326.162 322.706 324.434 324.434C322.706 326.162 321.194 327.998 319.79 329.942L289.769 299.92Z" stroke="white" stroke-width="1.5" stroke-miterlimit="10"/>
<path d="M35.5566 173.246C35.5566 249.164 97.3277 310.935 173.246 310.935C249.164 310.935 310.935 249.164 310.935 173.246C310.935 97.3283 249.164 35.5573 173.246 35.5573C97.3277 35.5573 35.5566 97.3283 35.5566 173.246Z" stroke="white" stroke-width="1.5" stroke-miterlimit="10"/>
<path d="M70.1152 173.246C70.1152 197.112 78.5386 220.439 93.6573 238.905C95.2772 240.849 97.545 241.821 99.9208 241.821C101.757 241.821 103.593 241.173 105.104 239.985C108.56 237.177 108.992 231.994 106.184 228.538C93.3334 213.095 86.3139 193.441 86.3139 173.246C86.3139 143.765 101.109 116.443 125.839 100.352C129.618 97.8684 130.59 92.9008 128.215 89.1211C125.731 85.3414 120.763 84.2615 116.983 86.7453C87.6098 105.968 70.1152 138.257 70.1152 173.246Z" fill="white"/>
<path d="M147.976 81.2377C148.732 85.1254 152.079 87.8252 155.967 87.8252C156.507 87.8252 156.939 87.8252 157.479 87.7172C162.663 86.7453 167.954 86.3133 173.246 86.3133C177.673 86.3133 181.345 82.6416 181.345 78.214C181.345 73.7863 177.673 70.1146 173.246 70.1146C166.982 70.1146 160.611 70.6546 154.455 71.8425C150.136 72.5984 147.22 76.8101 147.976 81.2377Z" fill="#FF005C"/>
</svg>
