<svg width="1527" height="402" viewBox="0 0 1527 402" fill="none" xmlns="http://www.w3.org/2000/svg">
<g opacity="0.5">
<g opacity="0.5">
<path d="M1506.91 66H1405.09C1394.57 66 1386 74.4922 1386 84.9255V327.075C1386 337.508 1394.57 346 1405.09 346H1506.91C1517.43 346 1526 337.508 1526 327.075V84.6828C1525.76 74.2496 1517.43 66 1506.91 66Z" stroke="white" stroke-miterlimit="10"/>
<path d="M1507.64 71.0955C1507.4 71.0955 1507.15 71.0955 1506.91 71.0955H1405.09C1404.85 71.0955 1404.6 71.0955 1404.36 71.0955C1397.01 71.5807 1391.14 77.6466 1391.14 84.9256V327.075C1391.14 334.111 1396.77 340.177 1403.87 340.905H1404.11C1404.36 340.905 1404.6 340.905 1404.85 340.905H1506.66C1506.91 340.905 1507.15 340.905 1507.4 340.905H1507.64C1514.74 340.42 1520.37 334.354 1520.37 327.075V84.683C1520.62 77.4039 1514.99 71.3381 1507.64 71.0955Z" stroke="white" stroke-miterlimit="10"/>
<path d="M1507.4 74.7349C1506.91 74.7349 1506.91 74.7349 1506.66 74.7349H1491.98C1491.24 74.7349 1490.51 75.4628 1490.27 76.1907C1490.27 76.1907 1490.27 76.1907 1490.27 76.4333C1490.02 80.8007 1486.59 84.1976 1482.19 84.1976H1456.98H1454.04H1428.83C1424.43 84.1976 1421 80.8007 1420.76 76.4333C1420.76 76.4333 1420.76 76.4333 1420.76 76.1907C1420.76 75.4628 1420.02 74.7349 1419.04 74.7349H1404.36C1404.11 74.7349 1404.11 74.7349 1403.87 74.7349H1403.62C1398.24 74.9775 1394.08 79.5875 1394.08 84.9255V327.075C1394.08 332.413 1398.24 336.78 1403.38 337.265C1403.38 337.265 1403.38 337.265 1403.62 337.265C1403.87 337.265 1403.87 337.265 1404.11 337.265H1453.55H1456.49H1505.93C1506.18 337.265 1506.18 337.265 1506.42 337.265C1506.42 337.265 1506.42 337.265 1506.66 337.265C1512.05 336.78 1515.97 332.413 1515.97 327.075V84.6829C1516.94 79.3449 1512.78 74.9775 1507.4 74.7349Z" stroke="white" stroke-miterlimit="10"/>
<path d="M1462.85 78.1317H1448.9C1448.17 78.1317 1447.68 77.6464 1447.68 76.9185C1447.68 76.1906 1448.17 75.7053 1448.9 75.7053H1462.85C1463.59 75.7053 1464.08 76.1906 1464.08 76.9185C1464.08 77.6464 1463.59 78.1317 1462.85 78.1317Z" stroke="white" stroke-miterlimit="10"/>
</g>
<path d="M1480.48 95.3586H1431.52V114.769H1480.48V95.3586Z" fill="#EC7333"/>
<path d="M1421.73 97.7842H1407.05V112.342H1421.73V97.7842Z" fill="white"/>
<path d="M1504.95 97.7849H1490.27V112.343H1504.95V97.7849Z" fill="white"/>
<path d="M1504.95 202.118H1407.05V129.327H1504.95V202.118Z" fill="#B6B6B6"/>
<path d="M1407.05 211.823H1504.95" stroke="white" stroke-width="1.5" stroke-miterlimit="10" stroke-linecap="round"/>
<path d="M1407.05 219.587H1504.95" stroke="white" stroke-width="1.5" stroke-miterlimit="10" stroke-linecap="round"/>
<path d="M1407.05 227.352H1504.95" stroke="white" stroke-width="1.5" stroke-miterlimit="10" stroke-linecap="round"/>
<path d="M1407.05 235.116H1504.95" stroke="white" stroke-width="1.5" stroke-miterlimit="10" stroke-linecap="round"/>
<path d="M1407.05 242.88H1504.95" stroke="white" stroke-width="1.5" stroke-miterlimit="10" stroke-linecap="round"/>
<path d="M1407.05 250.645H1504.95" stroke="white" stroke-width="1.5" stroke-miterlimit="10" stroke-linecap="round"/>
<path d="M1407.05 258.409H1436.91" stroke="white" stroke-width="1.5" stroke-miterlimit="10" stroke-linecap="round"/>
<path d="M1449.88 272.724H1407.05V284.613H1449.88V272.724Z" fill="white"/>
<path d="M1504.95 272.724H1462.12V284.613H1504.95V272.724Z" fill="#EC7333"/>
<path d="M1494.18 309.119H1407.05V302.083H1494.18" fill="#EC7333"/>
<path d="M1407.05 318.582H1504.95" stroke="white" stroke-width="1.5" stroke-miterlimit="10" stroke-linecap="round"/>
<path d="M1407.05 326.104H1471.91" stroke="white" stroke-width="1.5" stroke-miterlimit="10" stroke-linecap="round"/>
</g>
<path opacity="0.5" fill-rule="evenodd" clip-rule="evenodd" d="M1316.83 214.528C1317.46 215.157 1318.48 215.157 1319.11 214.528L1326.32 207.334C1326.39 207.282 1326.46 207.222 1326.53 207.156C1326.85 206.837 1327 206.418 1327 206C1327 205.582 1326.85 205.163 1326.53 204.844C1326.46 204.778 1326.39 204.718 1326.32 204.666L1319.11 197.472C1318.48 196.843 1317.46 196.843 1316.83 197.472C1316.2 198.101 1316.2 199.121 1316.83 199.751L1321.47 204.388L1307.61 204.388C1306.72 204.388 1306 205.11 1306 206C1306 206.889 1306.72 207.611 1307.61 207.611L1321.47 207.611L1316.83 212.25C1316.2 212.879 1316.2 213.899 1316.83 214.528Z" fill="white"/>
<g opacity="0.5">
<g opacity="0.5">
<path d="M1226.48 31H807.521C796.784 31 788 39.7927 788 50.5394V361.461C788 372.207 796.784 381 807.521 381H1226.48C1237.22 381 1246 372.207 1246 361.461V50.5394C1246 39.7927 1237.22 31 1226.48 31Z" stroke="white" stroke-miterlimit="10"/>
<path d="M1226.48 32.9539H807.521C797.76 32.9539 789.952 40.7696 789.952 50.5393V361.46C789.952 371.23 797.76 379.046 807.521 379.046H1226.48C1236.24 379.046 1244.05 371.23 1244.05 361.46V50.5393C1244.05 40.7696 1236.24 32.9539 1226.48 32.9539Z" stroke="white" stroke-miterlimit="10"/>
<path d="M1231.6 361.46C1231.6 364.147 1229.41 366.589 1226.48 366.589H807.521C804.837 366.589 802.396 364.391 802.396 361.46V50.5393C802.396 47.8526 804.593 45.4102 807.521 45.4102H1226.48C1229.16 45.4102 1231.6 47.6083 1231.6 50.5393V361.46V361.46Z" stroke="white" stroke-miterlimit="10"/>
</g>
<path d="M947.58 224.44H828.017V104.761H947.58V224.44Z" fill="#B6B6B6"/>
<path d="M1084.22 347.783H828.017V307.971H1084.22V347.783Z" fill="#B6B6B6"/>
<path d="M1205.49 272.556H1108.62V104.761H1205.49V272.556Z" fill="#B6B6B6"/>
<path d="M968.564 108.425H1074.22" stroke="white" stroke-width="1.5" stroke-miterlimit="10" stroke-linecap="round"/>
<path d="M968.564 117.706H1074.22" stroke="white" stroke-width="1.5" stroke-miterlimit="10" stroke-linecap="round"/>
<path d="M968.564 126.988H1074.22" stroke="white" stroke-width="1.5" stroke-miterlimit="10" stroke-linecap="round"/>
<path d="M968.564 136.269H1074.22" stroke="white" stroke-width="1.5" stroke-miterlimit="10" stroke-linecap="round"/>
<path d="M968.564 145.306H1074.22" stroke="white" stroke-width="1.5" stroke-miterlimit="10" stroke-linecap="round"/>
<path d="M968.564 154.587H1074.22" stroke="white" stroke-width="1.5" stroke-miterlimit="10" stroke-linecap="round"/>
<path d="M968.564 163.868H1001.02" stroke="white" stroke-width="1.5" stroke-miterlimit="10" stroke-linecap="round"/>
<path d="M1014.68 180.965H968.564V195.131H1014.68V180.965Z" fill="white" stroke="white" stroke-width="1.5" stroke-miterlimit="10" stroke-linecap="round"/>
<path d="M1074.22 180.965H1028.1V195.131H1074.22V180.965Z" fill="#EC7333"/>
<path d="M1205.5 70.8118H1159.38V84.9779H1205.5V70.8118Z" fill="#EC7333"/>
<path d="M889.018 65.6824H828.017V90.1067H889.018V65.6824Z" fill="#EC7333"/>
<path d="M986.621 73.498H937.819V82.0465H986.621V73.498Z" fill="white"/>
<path d="M1059.82 73.498H1011.02V82.0465H1059.82V73.498Z" fill="white"/>
<path d="M1133.02 73.498H1084.22V82.0465H1133.02V73.498Z" fill="white"/>
<path d="M1047.62 243.98H828.017V252.528H1047.62V243.98Z" fill="#EC7333"/>
<path d="M828.017 267.183H1074.22" stroke="white" stroke-width="1.5" stroke-miterlimit="10" stroke-linecap="round"/>
<path d="M828.017 285.501H1023.47" stroke="white" stroke-width="1.5" stroke-miterlimit="10" stroke-linecap="round"/>
<path d="M828.017 276.22H991.745" stroke="white" stroke-width="1.5" stroke-miterlimit="10" stroke-linecap="round"/>
<path d="M1114.72 286.722H1199.39" stroke="white" stroke-width="1.5" stroke-miterlimit="10" stroke-linecap="round"/>
<path d="M1114.72 296.003H1199.39" stroke="white" stroke-width="1.5" stroke-miterlimit="10" stroke-linecap="round"/>
<path d="M1114.72 305.285H1199.39" stroke="white" stroke-width="1.5" stroke-miterlimit="10" stroke-linecap="round"/>
<path d="M1114.72 314.566H1199.39" stroke="white" stroke-width="1.5" stroke-miterlimit="10" stroke-linecap="round"/>
<path d="M1114.72 323.603H1199.39" stroke="white" stroke-width="1.5" stroke-miterlimit="10" stroke-linecap="round"/>
<path d="M1114.72 332.884H1199.39" stroke="white" stroke-width="1.5" stroke-miterlimit="10" stroke-linecap="round"/>
<path d="M1114.72 342.165H1140.59" stroke="white" stroke-width="1.5" stroke-miterlimit="10" stroke-linecap="round"/>
</g>
<path opacity="0.5" fill-rule="evenodd" clip-rule="evenodd" d="M707.826 214.528C708.456 215.157 709.478 215.157 710.108 214.528L717.315 207.334C717.39 207.282 717.461 207.222 717.527 207.156C717.847 206.837 718.004 206.418 718 206C718.004 205.582 717.847 205.163 717.527 204.844C717.461 204.778 717.39 204.718 717.315 204.666L710.108 197.472C709.478 196.843 708.456 196.843 707.826 197.472C707.195 198.101 707.195 199.121 707.826 199.751L712.472 204.388L698.611 204.388C697.721 204.388 697 205.11 697 206C697 206.889 697.721 207.611 698.611 207.611L712.473 207.611L707.826 212.25C707.195 212.879 707.195 213.899 707.826 214.528Z" fill="white"/>
<g opacity="0.5">
<g opacity="0.5">
<path d="M622.682 372.321H48.7061V19.1132C48.7061 9.15094 56.8583 1 66.8221 1H604.868C614.831 1 622.984 9.15094 622.984 19.1132V372.321H622.682Z" stroke="white" stroke-miterlimit="10"/>
<path d="M599.433 29.981H71.9551V327.943H599.433V29.981Z" stroke="white" stroke-miterlimit="10"/>
<path d="M534.517 355.717H139.89V372.623H534.517V355.717Z" stroke="white" stroke-miterlimit="10"/>
<path d="M534.517 365.075H139.89V372.623H534.517V365.075Z" stroke="white" stroke-miterlimit="10"/>
<path d="M3.71973 387.415C3.71973 387.415 7.34293 392.849 22.7415 398.887C26.0628 400.094 29.9879 401 33.6111 401H641.101C645.329 401 649.858 400.094 653.783 398.283C658.312 396.17 662.237 392.849 665.558 387.717H3.71973V387.415Z" stroke="white" stroke-miterlimit="10"/>
<path d="M663.442 387.415H5.529C2.8116 387.415 1 385.302 1 382.887V377.151C1 374.434 3.11353 372.623 5.529 372.623H663.442C666.16 372.623 667.971 374.736 667.971 377.151V382.887C668.273 385.302 666.16 387.415 663.442 387.415Z" stroke="white" stroke-miterlimit="10"/>
<path d="M335.543 17.302C338.378 17.302 340.676 15.0043 340.676 12.1699C340.676 9.33555 338.378 7.03784 335.543 7.03784C332.708 7.03784 330.41 9.33555 330.41 12.1699C330.41 15.0043 332.708 17.302 335.543 17.302Z" stroke="white" stroke-miterlimit="10"/>
<path d="M269.118 7.33947H142.91C141.4 7.33947 140.494 6.13192 140.494 4.92437C140.494 3.41494 141.702 2.50928 142.91 2.50928H268.816C270.326 2.50928 271.231 3.71682 271.231 4.92437C271.533 6.13192 270.326 7.33947 269.118 7.33947Z" stroke="white" stroke-miterlimit="10"/>
<path d="M526.064 7.33947H400.158C398.648 7.33947 397.742 6.13192 397.742 4.92437C397.742 3.41494 398.95 2.50928 400.158 2.50928H526.064C527.574 2.50928 528.479 3.71682 528.479 4.92437C528.479 6.13192 527.272 7.33947 526.064 7.33947Z" stroke="white" stroke-miterlimit="10"/>
<path d="M617.851 105.755C616.945 105.755 616.341 105.151 616.341 104.245V62.5849C616.341 61.6792 616.945 61.0754 617.851 61.0754C618.757 61.0754 619.361 61.6792 619.361 62.5849V104.245C619.361 105.151 618.455 105.755 617.851 105.755Z" stroke="white" stroke-miterlimit="10"/>
<path d="M54.1408 105.755C53.2348 105.755 52.6309 105.151 52.6309 104.245V62.5849C52.6309 61.6792 53.2348 61.0754 54.1408 61.0754C55.0467 61.0754 55.6507 61.6792 55.6507 62.5849V104.245C55.6507 105.151 55.0467 105.755 54.1408 105.755Z" stroke="white" stroke-miterlimit="10"/>
</g>
<path d="M250.096 244.321H102.148V96.3962H250.096V244.321ZM102.148 96.3962L250.096 244.321L102.148 96.3962ZM250.096 96.3962L102.148 244.321L250.096 96.3962Z" fill="#B6B6B6"/>
<path d="M569.24 304.094H449.372V96.3962H569.24V304.094ZM449.372 96.3962L569.24 303.792L449.372 96.3962ZM569.24 96.3962L449.372 304.094L569.24 96.3962Z" fill="#B6B6B6"/>
<path d="M276.364 101.226H406.8" stroke="white" stroke-width="1.5" stroke-miterlimit="10" stroke-linecap="round"/>
<path d="M276.364 112.698H406.8" stroke="white" stroke-width="1.5" stroke-miterlimit="10" stroke-linecap="round"/>
<path d="M276.364 124.169H406.8" stroke="white" stroke-width="1.5" stroke-miterlimit="10" stroke-linecap="round"/>
<path d="M276.364 135.641H406.8" stroke="white" stroke-width="1.5" stroke-miterlimit="10" stroke-linecap="round"/>
<path d="M276.364 146.811H406.8" stroke="white" stroke-width="1.5" stroke-miterlimit="10" stroke-linecap="round"/>
<path d="M276.364 158.283H406.8" stroke="white" stroke-width="1.5" stroke-miterlimit="10" stroke-linecap="round"/>
<path d="M276.364 169.755H316.22" stroke="white" stroke-width="1.5" stroke-miterlimit="10" stroke-linecap="round"/>
<path d="M333.43 190.887H276.364V208.396H333.43V190.887Z" fill="white" stroke="white" stroke-width="1.5" stroke-miterlimit="10" stroke-linecap="round"/>
<path d="M406.8 190.887H349.734V208.396H406.8V190.887Z" fill="#EC7333"/>
<path d="M569.238 54.7356H512.173V72.245H569.238V54.7356Z" fill="#EC7333"/>
<path d="M177.632 48.0942H102.148V78.2829H177.632V48.0942Z" fill="#EC7333"/>
<path d="M298.404 58.0566H238.018V68.6227H298.404V58.0566Z" fill="white"/>
<path d="M388.985 58.0566H328.599V68.6227H388.985V58.0566Z" fill="white"/>
<path d="M479.566 58.0566H419.18V68.6227H479.566V58.0566Z" fill="white"/>
<path d="M373.889 268.472H102.148V279.038H373.889V268.472Z" fill="#EC7333"/>
<path d="M102.148 297.151H406.799" stroke="white" stroke-width="1.5" stroke-miterlimit="10" stroke-linecap="round"/>
<path d="M102.148 308.623H304.746" stroke="white" stroke-width="1.5" stroke-miterlimit="10" stroke-linecap="round"/>
</g>
</svg>
