<svg width="502" height="502" viewBox="0 0 502 502" fill="none" xmlns="http://www.w3.org/2000/svg">
<path d="M1.53906 173.414C1.53906 268.134 78.6942 345.289 173.414 345.289C212.423 345.289 248.414 332.25 277.293 310.267L312.099 345.073C312.315 345.289 312.53 345.504 312.746 345.72C312.099 348.522 311.884 351.539 311.884 354.448C311.884 365.871 316.302 376.539 324.384 384.513L427.832 487.961C435.914 496.043 446.582 500.461 457.897 500.461C469.319 500.461 479.987 496.043 487.961 487.961C496.043 479.879 500.461 469.211 500.461 457.897C500.461 446.582 496.043 435.806 487.961 427.832L384.513 324.384C376.431 316.302 365.763 311.884 354.449 311.884C351.431 311.884 348.522 312.207 345.72 312.746C345.505 312.53 345.289 312.315 345.074 312.099L310.268 277.293C332.25 248.414 345.289 212.422 345.289 173.414C345.289 78.694 268.134 1.53882 173.414 1.53882C78.6942 1.53882 1.53906 78.694 1.53906 173.414Z" stroke="white" stroke-width="1.5" stroke-miterlimit="10"/>
<path d="M345.828 383.112L383.112 345.828L476.539 439.254C481.496 444.211 484.298 450.892 484.298 457.897C484.298 464.901 481.604 471.582 476.539 476.539C471.582 481.496 464.901 484.297 457.897 484.297C450.892 484.297 444.211 481.603 439.255 476.539L345.828 383.112ZM328.048 354.448C328.048 347.444 330.742 340.763 335.806 335.806C340.979 330.634 347.767 328.047 354.448 328.047C360.591 328.047 366.733 330.203 371.69 334.405L334.405 371.69C330.311 366.84 328.048 360.806 328.048 354.448ZM289.686 299.815C293.242 296.582 296.582 293.241 299.815 289.685L329.772 319.642C327.832 321.043 326 322.552 324.276 324.276C322.552 326 321.043 327.832 319.642 329.772L289.686 299.815Z" stroke="white" stroke-width="1.5" stroke-miterlimit="10"/>
<path d="M36.0215 173.414C36.0215 249.168 97.6594 310.806 173.414 310.806C249.168 310.806 310.806 249.168 310.806 173.414C310.806 97.6594 249.168 36.0215 173.414 36.0215C97.6594 36.0215 36.0215 97.6594 36.0215 173.414Z" stroke="white" stroke-width="1.5" stroke-miterlimit="10"/>
<path d="M70.5039 173.414C70.5039 197.229 78.9091 220.504 93.9953 238.931C95.6117 240.871 97.8746 241.841 100.245 241.841C102.077 241.841 103.909 241.194 105.418 240.009C108.866 237.207 109.297 232.035 106.495 228.586C93.672 213.177 86.6677 193.565 86.6677 173.414C86.6677 143.996 101.431 116.733 126.107 100.677C129.879 98.1984 130.849 93.2415 128.478 89.4699C126 85.6983 121.043 84.6208 117.271 87.0992C87.9608 106.28 70.5039 138.5 70.5039 173.414Z" stroke="white" stroke-width="1.5" stroke-miterlimit="10"/>
<path d="M148.199 81.6035C148.953 85.4828 152.294 88.1768 156.173 88.1768C156.712 88.1768 157.143 88.1768 157.682 88.0691C162.854 87.0992 168.134 86.6682 173.415 86.6682C177.833 86.6682 181.497 83.0044 181.497 78.5863C181.497 74.1682 177.833 70.5044 173.415 70.5044C167.165 70.5044 160.807 71.0432 154.665 72.2285C150.354 72.9828 147.445 77.1854 148.199 81.6035Z" stroke="white" stroke-width="1.5" stroke-miterlimit="10"/>
</svg>
