<svg width="18" height="21" viewBox="0 0 18 21" fill="none" xmlns="http://www.w3.org/2000/svg">
<path fill-rule="evenodd" clip-rule="evenodd" d="M0.471848 10.8261C-0.157371 11.4565 -0.157369 12.4785 0.471846 13.1088L7.66573 20.3157C7.71815 20.3901 7.77759 20.461 7.84405 20.5276C8.16283 20.8469 8.58194 21.0045 8.99973 21.0003C9.41768 21.0046 9.83699 20.8471 10.1559 20.5276C10.2224 20.461 10.2818 20.39 10.3342 20.3156L17.5281 13.1088C18.1573 12.4785 18.1573 11.4565 17.5281 10.8261C16.8989 10.1958 15.8787 10.1958 15.2495 10.8261L10.6116 15.4724L10.6116 1.61137C10.6116 0.721519 9.89025 0.000155694 9.0004 0.000153708C8.11055 0.000153631 7.38919 0.721517 7.38919 1.61136L7.38919 15.4732L2.75045 10.8261C2.12123 10.1958 1.10107 10.1958 0.471848 10.8261Z" fill="#FE770A"/>
</svg>
