<svg xmlns="http://www.w3.org/2000/svg" fill="none" viewBox="0 0 196 32"><path fill="#DD0707" d="M78.59 26.43a2.04 2.04 0 01-2.04-2c0-1.13.91-2.02 2.04-2.02s2.04.92 2.04 2.01c0 1.1-.91 2.01-2.04 2.01z"/><path fill="#fff" d="M70.45 9.9a8.7 8.7 0 00-9.9 1.06l-.53.46-.04.03c-.74.74-.88 1.94-.2 2.75.77.92 2.14.99 2.99.14l.07-.07a4.85 4.85 0 013.98-1.37 4.76 4.76 0 11-3.98 8.07l-6.98-6.98V2.01C55.86.88 54.94 0 53.82 0c-1.13 0-2.05.92-2.05 2v8.26a8.69 8.69 0 00-9.13-.29 8.81 8.81 0 1010.58 13.89l.03-.04c.74-.74.88-1.93.21-2.75a2.03 2.03 0 00-3-.14l-.06.07a4.85 4.85 0 01-3.99 1.38 4.76 4.76 0 113.98-8.07l1.38 1.37v.07h.07l8.1 8.1a8.83 8.83 0 0012.45 0A8.75 8.75 0 0070.45 9.9zM17.62 17.62a8.81 8.81 0 00-14.2-6.94A4.06 4.06 0 000 8.8v15.61c0 1.1.92 2.01 2 2.01a2 2 0 002.02-2v-6.8a4.74 4.74 0 014.76-4.77 4.74 4.74 0 014.75 4.76v6.8a2 2 0 104.02 0v-6.8h.07z"/><path fill="#DD0707" d="M157.18 17.62a8.81 8.81 0 00-14.2-6.94 4.01 4.01 0 00-3.42-1.87v15.61a2 2 0 002 2.01c1.14 0 2.05-.91 2.05-2v-6.8a4.74 4.74 0 014.76-4.77 4.74 4.74 0 014.76 4.76v6.8a2 2 0 002 2.01c1.13 0 2.05-.91 2.05-2v-6.8z"/><path fill="#fff" d="M27.95 8.81a8.81 8.81 0 000 17.62 8.7 8.7 0 005.39-1.87 4.01 4.01 0 003.42 1.87v-8.8a8.81 8.81 0 00-8.81-8.82zm0 13.57a4.74 4.74 0 01-4.76-4.76 4.74 4.74 0 014.76-4.76 4.74 4.74 0 014.75 4.76 4.74 4.74 0 01-4.75 4.76z"/><path fill="#DD0707" d="M90.96 8.81a8.81 8.81 0 000 17.62 8.7 8.7 0 005.4-1.87 4.01 4.01 0 003.41 1.87v-8.8a8.81 8.81 0 00-8.81-8.82zm0 13.57a4.74 4.74 0 01-4.76-4.76 4.74 4.74 0 014.76-4.76 4.76 4.76 0 010 9.52zM101.29 17.62a8.81 8.81 0 0017.62 0 8.7 8.7 0 00-1.87-5.4 4.01 4.01 0 001.87-3.4h-8.81a8.81 8.81 0 00-8.81 8.8zm13.56 0a4.74 4.74 0 01-4.75 4.76 4.74 4.74 0 01-4.76-4.76 4.76 4.76 0 019.52 0z"/><path fill="#DD0707" d="M118.9 31.96c0-2.22-1.79-4.01-4.01-4.01h-4.8c-4.75 0-8.31-3.42-8.73-5.92a9.4 9.4 0 00.28 3.66A8.7 8.7 0 00110.1 32l8.8-.04zM177.83 31.96c0-2.22 1.8-4.01 4.02-4.01h4.8c4.75 0 8.31-3.42 8.73-5.92a9.4 9.4 0 01-.28 3.66 8.7 8.7 0 01-8.46 6.31l-8.8-.04zM138.04 17.62a8.84 8.84 0 00-9.37-8.8 8.82 8.82 0 00.56 17.62h8.81c0-2.26-1.8-4.06-4.05-4.06h-4.76a4.8 4.8 0 01-4.3-2.71H136a2.07 2.07 0 002.04-2.05zm-8.8-4.76a4.8 4.8 0 014.3 2.72h-8.6a4.8 4.8 0 014.3-2.72z"/><path fill="#DD0707" d="M193.44 8.81c-1.12 0-2.04.92-2.04 2v6.81a4.74 4.74 0 01-4.76 4.76 4.74 4.74 0 01-4.75-4.76v-6.8c0-1.13-.92-2-2.05-2s-2.04.9-2.04 2v6.59a9 9 0 008.98 9.02 8.8 8.8 0 008.64-8.8v-6.81c.03-1.1-.85-2-1.97-2zM176.32 26.43c0-2.25-1.8-4.05-4.06-4.05h-4.75a4.75 4.75 0 113.38-8.1l.07.06c.78.78 2.04.78 2.85 0 .82-.77.78-2.04 0-2.85l-.1-.1a8.81 8.81 0 10-6.24 15.05h8.85z"/></svg>