<svg width="950" height="322" viewBox="0 0 950 322" fill="none" xmlns="http://www.w3.org/2000/svg">
<path d="M892.086 125.281L892.089 125.283C953.999 160.316 961.703 240.004 914.518 286.382L914.511 286.388L914.505 286.394C874.621 325.876 810.347 325.85 770.914 286.412L673.372 188.857L672.761 188.246L671.908 187.392L671.297 186.781L655.3 170.782C644.103 159.139 628.3 152.21 610.76 152.21C573.637 152.21 544.44 184.251 548.605 222.203L548.606 222.216L548.608 222.228C551.861 250.585 574.59 273.272 602.855 276.979L602.898 276.985L602.941 276.99C623.282 279.301 642.274 271.903 655.264 258.911L656.118 258.058C664.237 249.937 677.475 250.543 685.02 259.437C691.233 266.985 690.162 278.582 682.76 285.985L682.351 286.394C682.348 286.397 682.345 286.4 682.342 286.403C642.458 325.876 578.19 325.847 538.761 286.412C492.799 240.444 500.101 161.536 560.372 126.098C593.628 106.63 634.27 109.014 665.649 129.393L673.372 134.408V125.199V25.3259C673.372 14.9119 682.173 5.9978 693.124 5.9978C704.132 5.9978 712.875 14.5417 712.875 25.3259V170.441V172.512L714.339 173.976L798.837 258.484C810.39 270.039 825.724 277.021 843.341 277.021C880.463 277.021 909.661 244.981 905.496 207.028L905.494 207.016L905.493 207.003C902.239 178.646 879.511 155.96 851.246 152.252L851.203 152.247L851.16 152.242C830.819 149.93 811.826 157.329 798.837 170.32L802.372 173.855L798.837 170.32L797.983 171.174C789.864 179.294 776.627 178.688 769.081 169.795C762.868 162.247 763.938 150.65 771.341 143.246L771.642 142.945L777.868 137.548C777.874 137.543 777.881 137.537 777.888 137.532C810.111 110.213 855.633 104.622 892.086 125.281Z" stroke="white" stroke-width="10"/>
<path d="M429.717 296.664L426.766 291.943L422.388 295.383C405.25 308.848 383.644 316.998 359.993 316.998C303.691 316.998 257.993 271.301 257.993 214.998C257.993 158.696 303.691 112.998 359.993 112.998C416.296 112.998 461.993 158.696 461.993 214.998V316.725C448.297 315.22 436.552 307.599 429.717 296.664ZM297.213 214.998C297.213 249.86 325.132 277.778 359.993 277.778C394.855 277.778 422.773 249.86 422.773 214.998C422.773 180.137 394.855 152.218 359.993 152.218C325.132 152.218 297.213 180.137 297.213 214.998Z" stroke="white" stroke-width="10"/>
<path d="M38.5041 133.433L41.4887 137.963L45.7608 134.62C62.9702 121.152 84.6705 112.998 108.426 112.998C164.936 112.998 209.997 158.616 209.997 214.95V297.602C209.997 308.147 201.454 316.998 190.503 316.998C179.866 316.998 171.009 308.461 171.009 297.602V214.998C171.009 180.118 142.968 152.218 107.997 152.218C73.0252 152.218 44.9845 180.118 44.9845 214.998V297.602C44.9845 308.147 36.442 316.998 25.4906 316.998C14.9118 316.998 5.99658 308.09 5.99658 297.602V113.27C19.6546 114.771 31.2152 122.371 38.5041 133.433Z" stroke="white" stroke-width="10"/>
</svg>
