<svg width="196" height="32" viewBox="0 0 196 32" fill="none" xmlns="http://www.w3.org/2000/svg">
<path d="M78.5904 26.4318C77.4627 26.4318 76.5464 25.5155 76.5464 24.423C76.5464 23.2952 77.4627 22.4142 78.5904 22.4142C79.7182 22.4142 80.6345 23.3305 80.6345 24.423C80.6345 25.5155 79.7182 26.4318 78.5904 26.4318Z" fill="black"/>
<path d="M70.4495 9.90308C67.2777 8.10573 63.3306 8.59912 60.5464 10.9604L60.0178 11.4185L59.9826 11.4537C59.2425 12.1938 59.1015 13.3921 59.7711 14.2026C60.5464 15.1189 61.9209 15.1894 62.7667 14.3436L62.8372 14.2731C63.824 13.2863 65.2689 12.7225 66.8196 12.8987C68.9693 13.1806 70.6962 14.9075 70.9429 17.0573C71.2601 19.9471 69.0398 22.3789 66.2204 22.3789C64.8812 22.3789 63.7182 21.8502 62.8372 20.9692L55.8592 13.9912V2.00881C55.8592 0.881057 54.9429 0 53.8152 0C52.6874 0 51.7711 0.916299 51.7711 2.00881V10.2555C49.0574 8.49339 45.5332 8.28194 42.6434 9.97357C37.4275 13.0396 36.7931 19.8766 40.7755 23.859C44.194 27.2775 49.7623 27.2775 53.216 23.859L53.2513 23.8238C53.9914 23.0837 54.1323 21.8855 53.4627 21.0749C52.6874 20.1586 51.313 20.0881 50.4671 20.9339L50.3967 21.0044C49.4099 21.9912 47.9649 22.5551 46.4143 22.3789C44.2645 22.0969 42.5376 20.37 42.2909 18.2203C41.9737 15.3304 44.194 12.8987 47.0134 12.8987C48.3526 12.8987 49.5508 13.4273 50.3967 14.3084L51.7711 15.6828V15.7533H51.8416L59.9473 23.859C63.3658 27.2775 68.9341 27.2775 72.3878 23.859C76.4759 19.8414 75.8063 12.9339 70.4495 9.90308Z" fill="black"/>
<path d="M17.5507 17.6211C17.5507 12.7577 13.674 8.81055 8.81057 8.81055C6.76652 8.81055 4.89868 9.51539 3.4185 10.6784C2.67841 9.55063 1.44493 8.81055 0 8.81055V24.4229C0 25.5154 0.9163 26.4317 2.00881 26.4317C3.13656 26.4317 4.01762 25.5154 4.01762 24.4229V17.6211C4.01762 14.9779 6.13216 12.8634 8.77533 12.8634C11.4185 12.8634 13.533 14.9779 13.533 17.6211V24.4229C13.533 25.5506 14.4493 26.4317 15.5419 26.4317C16.6696 26.4317 17.5507 25.5154 17.5507 24.4229V17.6211Z" fill="black"/>
<path d="M157.181 17.6211C157.181 12.7577 153.234 8.81055 148.37 8.81055C146.326 8.81055 144.458 9.51539 142.978 10.6784C142.273 9.55063 141.005 8.81055 139.56 8.81055V24.4229C139.56 25.5506 140.476 26.4317 141.568 26.4317C142.696 26.4317 143.612 25.5154 143.612 24.4229V17.6211C143.612 14.9779 145.727 12.8634 148.37 12.8634C151.013 12.8634 153.128 14.9779 153.128 17.6211V24.4229C153.128 25.5506 154.044 26.4317 155.137 26.4317C156.264 26.4317 157.181 25.5154 157.181 24.4229V17.6211Z" fill="black"/>
<path d="M27.9468 8.81055C23.0834 8.81055 19.1362 12.7577 19.1362 17.6211C19.1362 22.4846 23.0834 26.4317 27.9468 26.4317C29.9909 26.4317 31.8587 25.7268 33.3389 24.5639C34.0437 25.6916 35.3124 26.4317 36.7574 26.4317V17.6211C36.7574 12.7577 32.8102 8.81055 27.9468 8.81055ZM27.9468 22.3788C25.3036 22.3788 23.1891 20.2643 23.1891 17.6211C23.1891 14.9779 25.3036 12.8634 27.9468 12.8634C30.59 12.8634 32.7045 14.9779 32.7045 17.6211C32.7045 20.2643 30.59 22.3788 27.9468 22.3788Z" fill="black"/>
<path d="M90.9605 8.81055C86.097 8.81055 82.1499 12.7577 82.1499 17.6211C82.1499 22.4846 86.097 26.4317 90.9605 26.4317C93.0045 26.4317 94.8724 25.7268 96.3525 24.5639C97.0574 25.6916 98.3261 26.4317 99.771 26.4317V17.6211C99.771 12.7577 95.8239 8.81055 90.9605 8.81055ZM90.9605 22.3788C88.3173 22.3788 86.2028 20.2643 86.2028 17.6211C86.2028 14.9779 88.3173 12.8634 90.9605 12.8634C93.6036 12.8634 95.7182 14.9779 95.7182 17.6211C95.7182 20.2643 93.5684 22.3788 90.9605 22.3788Z" fill="black"/>
<path d="M101.286 17.6211C101.286 22.4846 105.233 26.4317 110.097 26.4317C114.96 26.4317 118.907 22.4846 118.907 17.6211C118.907 15.5771 118.202 13.7092 117.039 12.229C118.167 11.5242 118.907 10.2555 118.907 8.81055H110.097C105.233 8.81055 101.286 12.7577 101.286 17.6211ZM114.854 17.6211C114.854 20.2643 112.74 22.3788 110.097 22.3788C107.454 22.3788 105.339 20.2643 105.339 17.6211C105.339 14.9779 107.454 12.8634 110.097 12.8634C112.705 12.8634 114.854 14.9779 114.854 17.6211Z" fill="black"/>
<path d="M118.907 31.9648C118.907 29.7446 117.11 27.9472 114.89 27.9472H110.097C105.339 27.9472 101.78 24.5287 101.357 22.0265C101.216 23.1895 101.286 24.423 101.639 25.6917C102.661 29.4626 106.185 32.0001 110.097 32.0001L118.907 31.9648Z" fill="black"/>
<path d="M177.833 31.9648C177.833 29.7446 179.63 27.9472 181.851 27.9472H186.644C191.401 27.9472 194.961 24.5287 195.384 22.0265C195.525 23.1895 195.454 24.423 195.102 25.6917C194.08 29.4626 190.555 32.0001 186.644 32.0001L177.833 31.9648Z" fill="black"/>
<path d="M138.044 17.6212C138.044 12.5816 133.78 8.49345 128.669 8.81063C124.299 9.09257 120.705 12.652 120.423 17.0573C120.106 22.1675 124.158 26.4318 129.233 26.4318H138.044C138.044 24.1763 136.246 22.3789 133.991 22.3789H129.233C127.33 22.3789 125.709 21.2512 124.934 19.6653H136C137.128 19.63 138.044 18.749 138.044 17.6212ZM129.233 12.8635C131.136 12.8635 132.757 13.9912 133.533 15.5771H124.934C125.709 13.9912 127.33 12.8635 129.233 12.8635Z" fill="black"/>
<path d="M193.445 8.81055C192.317 8.81055 191.401 9.72685 191.401 10.8194V17.6211C191.401 20.2643 189.286 22.3788 186.643 22.3788C184 22.3788 181.885 20.2643 181.885 17.6211V10.8194C181.885 9.6916 180.969 8.81055 179.841 8.81055C178.714 8.81055 177.797 9.72685 177.797 10.8194V17.4097C177.797 22.3436 181.85 26.5022 186.784 26.4317C191.577 26.326 195.419 22.4493 195.419 17.6211V10.8194C195.454 9.72685 194.573 8.81055 193.445 8.81055Z" fill="black"/>
<path d="M176.317 26.4315C176.317 24.176 174.52 22.3787 172.264 22.3787H167.507C164.687 22.3787 162.432 19.947 162.784 17.0571C163.031 14.9073 164.758 13.1452 166.907 12.8985C168.458 12.6871 169.903 13.2509 170.89 14.273L170.96 14.3434C171.736 15.1188 173.004 15.1188 173.815 14.3434C174.626 13.5681 174.59 12.2994 173.815 11.4888L173.709 11.3831C170.291 7.96459 164.722 7.96459 161.269 11.3831C157.286 15.3655 157.921 22.2025 163.137 25.2686C164.476 26.0791 165.991 26.4315 167.471 26.4315H176.317Z" fill="black"/>
</svg>
