<svg xmlns="http://www.w3.org/2000/svg" fill="none" viewBox="0 0 284 100"><path fill="#fff" d="M266.5 37.5a33 33 0 00-37.4 4l-2 1.7-.2.1c-2.8 2.8-3.3 7.4-.8 10.4 3 3.5 8.2 3.8 11.4.6l.2-.3c3.8-3.7 9.2-5.9 15.1-5.2a18 18 0 11-15 30.5L211.2 53V7.6c0-4.3-3.4-7.6-7.7-7.6a7.7 7.7 0 00-7.7 7.6v31.2a33.3 33.3 0 105.5 51.5V90c2.9-2.8 3.4-7.3.9-10.4a7.7 7.7 0 00-11.4-.5l-.2.3a18.3 18.3 0 01-15.1 5.2 18 18 0 1115-30.5l5.3 5.1v.3h.2l30.7 30.7a33.4 33.4 0 1039.7-52.8zM66.7 66.7a33.3 33.3 0 00-53.8-26.3c-2.8-4.3-7.4-7-12.9-7v59c0 4.1 3.5 7.6 7.6 7.6 4.3 0 7.6-3.5 7.6-7.6V66.7c0-10 8-18 18-18s18 8 18 18v25.7a7.6 7.6 0 1015.2 0V66.7h.3zM105.7 33.3A33.3 33.3 0 10126.1 93c2.7 4.3 7.5 7.1 13 7.1V66.7c0-18.4-15-33.4-33.4-33.4zm0 51.4c-10 0-18-8-18-18s8-18 18-18 18 8 18 18-8 18-18 18z"/></svg>