<svg width="502" height="502" viewBox="0 0 502 502" fill="none" xmlns="http://www.w3.org/2000/svg">
<path d="M501 250.913C501 389.071 389.071 501 251 501C112.929 501 1 389.071 1 250.913C1 112.929 112.929 1 251 1C389.071 1 501 112.929 501 250.913Z" stroke="white" stroke-width="1.5" stroke-miterlimit="10"/>
<path d="M461.266 250.913C461.266 367.084 367.083 461.267 251 461.267C134.829 461.267 40.6465 367.17 40.6465 250.913C40.6465 134.83 134.743 40.6468 251 40.6468C367.083 40.7334 461.266 134.916 461.266 250.913Z" stroke="white" stroke-width="1.5" stroke-miterlimit="10"/>
<path d="M415.387 250.913C415.387 341.72 341.807 415.301 251 415.301C160.28 415.301 86.6992 341.72 86.6992 250.913C86.6992 160.193 160.28 86.6995 251 86.6995C341.807 86.6995 415.387 160.28 415.387 250.913Z" stroke="white" stroke-width="1.5" stroke-miterlimit="10"/>
<path d="M364.573 250.913C364.573 313.76 313.759 364.573 250.999 364.573C188.239 364.573 137.426 313.76 137.426 250.913C137.426 188.327 188.239 137.427 250.999 137.427C313.759 137.427 364.573 188.327 364.573 250.913Z" stroke="white" stroke-width="1.5" stroke-miterlimit="10"/>
<path d="M307.7 250.914C307.7 282.25 282.337 307.614 251 307.614C219.75 307.614 194.387 282.25 194.387 250.914C194.387 219.664 219.75 194.386 251 194.386C282.25 194.386 307.7 219.75 307.7 250.914Z" stroke="white" stroke-width="1.5" stroke-miterlimit="10"/>
<path d="M376.26 116.738L368.729 79.0818L425.775 21.9488L433.393 59.6046L376.26 116.738Z" fill="#FF005C"/>
<path d="M384.051 124.355L421.707 132.06L478.753 74.9266L441.097 67.3089L384.051 124.355Z" fill="#FF005C"/>
<path d="M257.146 254.29C254.203 257.319 249.442 257.319 246.498 254.29C243.555 251.346 243.555 246.585 246.498 243.642L441.876 48.178C444.819 45.2348 449.667 45.2348 452.61 48.178C455.553 51.1212 455.553 55.9689 452.61 58.9121L257.146 254.29Z" fill="white"/>
</svg>
